<?xml version="1.0" encoding="UTF-8"?>
<svg width="23px" height="23px" viewBox="0 0 23 23" version="1.1" xmlns="http://www.w3.org/2000/svg" xmlns:xlink="http://www.w3.org/1999/xlink">
    <!-- Generator: Sketch 42 (36781) - http://www.bohemiancoding.com/sketch -->
    <title>sticky-note</title>
    <desc>Created with Sketch.</desc>
    <defs>
        <linearGradient x1="50%" y1="0%" x2="50%" y2="97.6223693%" id="linearGradient-1">
            <stop stop-color="#EE4DB7" offset="0%"></stop>
            <stop stop-color="#C743F9" offset="100%"></stop>
        </linearGradient>
    </defs>
    <g id="Page-1" stroke="none" stroke-width="1" fill="none" fill-rule="evenodd">
        <g id="Gradient---Filled" transform="translate(-301.000000, -301.000000)" fill="url(#linearGradient-1)">
            <g id="sticky-note" transform="translate(301.000000, 300.500000)">
                <path d="M11.3359,9.3612 C11.0159,9.2012 10.7849,9.0862 10.3149,9.1602 C9.8469,9.2342 9.6629,9.4152 9.4079,9.6662 C9.1229,9.9452 8.7689,10.2942 8.0209,10.4132 C7.2739,10.5312 6.8279,10.3082 6.4709,10.1302 C6.1499,9.9702 5.9199,9.8552 5.4509,9.9282 C5.2109,9.9662 4.9849,9.8032 4.9469,9.5632 C4.9089,9.3242 5.0729,9.0992 5.3139,9.0612 C6.0609,8.9432 6.5059,9.1652 6.8639,9.3432 C7.1839,9.5032 7.4149,9.6182 7.8829,9.5452 C8.3519,9.4702 8.5359,9.2892 8.7909,9.0392 C9.0759,8.7582 9.4309,8.4102 10.1779,8.2922 C10.9259,8.1742 11.3709,8.3962 11.7299,8.5742 C12.0489,8.7332 12.2799,8.8492 12.7489,8.7752 C13.2189,8.7012 13.4029,8.5192 13.6589,8.2682 C13.9439,7.9892 14.2999,7.6402 15.0489,7.5212 C15.7969,7.4032 16.2429,7.6262 16.6019,7.8032 C16.9219,7.9632 17.1529,8.0792 17.6229,8.0052 C17.8629,7.9662 18.0889,8.1302 18.1269,8.3702 C18.1649,8.6092 18.0009,8.8352 17.7609,8.8722 C17.0129,8.9912 16.5669,8.7682 16.2079,8.5902 C15.8879,8.4302 15.6559,8.3152 15.1869,8.3892 C14.7159,8.4642 14.5309,8.6452 14.2759,8.8962 C13.9909,9.1752 13.6359,9.5242 12.8869,9.6432 C12.1399,9.7612 11.6929,9.5392 11.3359,9.3612 L11.3359,9.3612 Z M11.4939,14.3122 C10.8789,14.4102 10.5029,14.1362 10.2279,13.9372 C9.9809,13.7582 9.8609,13.6802 9.6159,13.7192 C9.3719,13.7572 9.2819,13.8692 9.1029,14.1152 C8.9029,14.3892 8.6299,14.7652 8.0149,14.8622 C7.3999,14.9602 7.0239,14.6862 6.7489,14.4872 C6.5029,14.3082 6.3829,14.2302 6.1399,14.2692 C5.8989,14.3072 5.6739,14.1432 5.6359,13.9042 C5.5979,13.6642 5.7619,13.4392 6.0019,13.4012 C6.6159,13.3032 6.9919,13.5772 7.2669,13.7762 C7.5139,13.9552 7.6329,14.0332 7.8769,13.9942 C8.1209,13.9562 8.2109,13.8452 8.3909,13.5982 C8.5909,13.3252 8.8629,12.9492 9.4789,12.8512 C10.0939,12.7542 10.4709,13.0272 10.7449,13.2262 C10.9919,13.4052 11.1109,13.4832 11.3569,13.4442 C11.5969,13.4062 11.8219,13.5692 11.8589,13.8092 C11.8979,14.0492 11.7339,14.2742 11.4939,14.3122 L11.4939,14.3122 Z M15.6129,14.9962 L16.6459,21.5062 L4.0389,23.4992 C3.7989,23.5372 3.5729,23.3742 3.5349,23.1332 L0.5059,4.0382 C0.4679,3.7982 0.6309,3.5732 0.8709,3.5352 L19.9999,0.5102 C20.2399,0.4722 20.4649,0.6352 20.5029,0.8762 L22.4999,13.4622 L15.9799,14.4932 C15.7379,14.5312 15.5749,14.7562 15.6129,14.9962 Z M22.3828,14.37 L17.4748,21.114 L16.5518,15.292 L22.3828,14.37 Z" id="Combined-Shape"></path>
            </g>
        </g>
    </g>
</svg>